<svg width="190" height="68" viewBox="0 0 190 68" fill="none" xmlns="http://www.w3.org/2000/svg">
<path d="M58.3789 44.0839L40.4801 54.4178L22.5813 44.0839L22.5813 23.4161L40.4801 13.0823L58.3789 23.4161L58.3789 44.0839Z" fill="#31C6E8" fill-opacity="0.5"/>
<path d="M44.747 36.1686L26.8482 46.5024L8.9494 36.1686L8.9494 15.5008L26.8482 5.16694L44.747 15.5008L44.747 36.1686Z" fill="#31E89F" fill-opacity="0.5"/>
<path d="M44.747 51.9992L26.8482 62.3331L8.9494 51.9992L8.9494 31.3314L26.8482 20.9976L44.747 31.3314L44.747 51.9992Z" fill="#31E8E8" fill-opacity="0.5"/>
<path d="M86.812 13.602V17.242H78.44V22.408H85.412V26.062H78.44V34H73.68V13.602H86.812ZM88.4183 34V19.482H90.9943C91.2089 19.482 91.3863 19.5007 91.5263 19.538C91.6756 19.5753 91.7969 19.636 91.8903 19.72C91.9929 19.7947 92.0676 19.8973 92.1143 20.028C92.1703 20.1587 92.2169 20.3173 92.2543 20.504L92.4923 21.862C93.0243 21.0407 93.6216 20.392 94.2843 19.916C94.9469 19.44 95.6703 19.202 96.4543 19.202C97.1169 19.202 97.6489 19.3607 98.0503 19.678L97.4903 22.87C97.4529 23.066 97.3783 23.206 97.2663 23.29C97.1543 23.3647 97.0049 23.402 96.8183 23.402C96.6596 23.402 96.4729 23.3833 96.2583 23.346C96.0436 23.2993 95.7729 23.276 95.4463 23.276C94.3076 23.276 93.4116 23.8827 92.7583 25.096V34H88.4183ZM106.453 19.258C107.554 19.258 108.557 19.4307 109.463 19.776C110.368 20.1213 111.143 20.616 111.787 21.26C112.44 21.904 112.944 22.688 113.299 23.612C113.663 24.5267 113.845 25.558 113.845 26.706C113.845 27.8633 113.663 28.9087 113.299 29.842C112.944 30.766 112.44 31.5547 111.787 32.208C111.143 32.852 110.368 33.3513 109.463 33.706C108.557 34.0513 107.554 34.224 106.453 34.224C105.342 34.224 104.329 34.0513 103.415 33.706C102.509 33.3513 101.725 32.852 101.063 32.208C100.409 31.5547 99.9007 30.766 99.5367 29.842C99.182 28.9087 99.0047 27.8633 99.0047 26.706C99.0047 25.558 99.182 24.5267 99.5367 23.612C99.9007 22.688 100.409 21.904 101.063 21.26C101.725 20.616 102.509 20.1213 103.415 19.776C104.329 19.4307 105.342 19.258 106.453 19.258ZM106.453 31.004C107.451 31.004 108.184 30.654 108.651 29.954C109.127 29.2447 109.365 28.1713 109.365 26.734C109.365 25.2967 109.127 24.228 108.651 23.528C108.184 22.828 107.451 22.478 106.453 22.478C105.426 22.478 104.675 22.828 104.199 23.528C103.723 24.228 103.485 25.2967 103.485 26.734C103.485 28.1713 103.723 29.2447 104.199 29.954C104.675 30.654 105.426 31.004 106.453 31.004ZM116.227 34V19.482H118.915C119.186 19.482 119.41 19.5427 119.587 19.664C119.774 19.7853 119.904 19.9673 119.979 20.21L120.231 21.05C120.511 20.7887 120.8 20.546 121.099 20.322C121.398 20.098 121.715 19.9113 122.051 19.762C122.396 19.6033 122.765 19.482 123.157 19.398C123.558 19.3047 123.992 19.258 124.459 19.258C125.252 19.258 125.952 19.398 126.559 19.678C127.175 19.9487 127.693 20.3313 128.113 20.826C128.533 21.3113 128.85 21.8947 129.065 22.576C129.28 23.248 129.387 23.9807 129.387 24.774V34H125.047V24.774C125.047 24.0647 124.884 23.514 124.557 23.122C124.23 22.7207 123.75 22.52 123.115 22.52C122.639 22.52 122.191 22.6227 121.771 22.828C121.351 23.0333 120.95 23.3087 120.567 23.654V34H116.227ZM137.565 34.224C136.874 34.224 136.263 34.126 135.731 33.93C135.208 33.7247 134.765 33.44 134.401 33.076C134.046 32.7027 133.776 32.2547 133.589 31.732C133.402 31.2093 133.309 30.626 133.309 29.982V22.478H132.077C131.853 22.478 131.662 22.408 131.503 22.268C131.344 22.1187 131.265 21.904 131.265 21.624V19.93L133.575 19.482L134.429 15.94C134.541 15.492 134.858 15.268 135.381 15.268H137.649V19.51H141.177V22.478H137.649V29.688C137.649 30.024 137.728 30.304 137.887 30.528C138.055 30.7427 138.293 30.85 138.601 30.85C138.76 30.85 138.89 30.836 138.993 30.808C139.105 30.7707 139.198 30.7333 139.273 30.696C139.357 30.6493 139.432 30.612 139.497 30.584C139.572 30.5467 139.656 30.528 139.749 30.528C139.88 30.528 139.982 30.5607 140.057 30.626C140.141 30.682 140.225 30.7753 140.309 30.906L141.625 32.964C141.065 33.384 140.435 33.7013 139.735 33.916C139.035 34.1213 138.312 34.224 137.565 34.224ZM149.896 19.258C150.857 19.258 151.735 19.4073 152.528 19.706C153.331 20.0047 154.017 20.4387 154.586 21.008C155.165 21.5773 155.613 22.2773 155.93 23.108C156.257 23.9293 156.42 24.8627 156.42 25.908C156.42 26.2347 156.406 26.5007 156.378 26.706C156.35 26.9113 156.299 27.0747 156.224 27.196C156.149 27.3173 156.047 27.4013 155.916 27.448C155.795 27.4947 155.636 27.518 155.44 27.518H147.068C147.208 28.7313 147.577 29.6133 148.174 30.164C148.771 30.7053 149.541 30.976 150.484 30.976C150.988 30.976 151.422 30.9153 151.786 30.794C152.15 30.6727 152.472 30.5373 152.752 30.388C153.041 30.2387 153.303 30.1033 153.536 29.982C153.779 29.8607 154.031 29.8 154.292 29.8C154.637 29.8 154.899 29.926 155.076 30.178L156.336 31.732C155.888 32.2453 155.403 32.6653 154.88 32.992C154.367 33.3093 153.835 33.5613 153.284 33.748C152.743 33.9253 152.197 34.0467 151.646 34.112C151.105 34.1867 150.587 34.224 150.092 34.224C149.075 34.224 148.118 34.0607 147.222 33.734C146.335 33.398 145.556 32.9033 144.884 32.25C144.221 31.5967 143.694 30.7847 143.302 29.814C142.919 28.8433 142.728 27.714 142.728 26.426C142.728 25.4553 142.891 24.536 143.218 23.668C143.554 22.8 144.03 22.0393 144.646 21.386C145.271 20.7327 146.023 20.2147 146.9 19.832C147.787 19.4493 148.785 19.258 149.896 19.258ZM149.98 22.254C149.149 22.254 148.501 22.492 148.034 22.968C147.567 23.4347 147.259 24.1113 147.11 24.998H152.528C152.528 24.6527 152.481 24.3167 152.388 23.99C152.304 23.6633 152.159 23.374 151.954 23.122C151.758 22.8607 151.497 22.6507 151.17 22.492C150.843 22.3333 150.447 22.254 149.98 22.254ZM158.91 34V19.482H161.598C161.869 19.482 162.093 19.5427 162.27 19.664C162.457 19.7853 162.588 19.9673 162.662 20.21L162.914 21.05C163.194 20.7887 163.484 20.546 163.782 20.322C164.081 20.098 164.398 19.9113 164.734 19.762C165.08 19.6033 165.448 19.482 165.84 19.398C166.242 19.3047 166.676 19.258 167.142 19.258C167.936 19.258 168.636 19.398 169.242 19.678C169.858 19.9487 170.376 20.3313 170.796 20.826C171.216 21.3113 171.534 21.8947 171.748 22.576C171.963 23.248 172.07 23.9807 172.07 24.774V34H167.73V24.774C167.73 24.0647 167.567 23.514 167.24 23.122C166.914 22.7207 166.433 22.52 165.798 22.52C165.322 22.52 164.874 22.6227 164.454 22.828C164.034 23.0333 163.633 23.3087 163.25 23.654V34H158.91ZM185.345 34C185.074 34 184.845 33.9393 184.659 33.818C184.481 33.6967 184.355 33.5147 184.281 33.272L183.945 32.166C183.655 32.474 183.352 32.754 183.035 33.006C182.717 33.258 182.372 33.4773 181.999 33.664C181.635 33.8413 181.238 33.9767 180.809 34.07C180.389 34.1727 179.931 34.224 179.437 34.224C178.681 34.224 177.981 34.056 177.337 33.72C176.693 33.384 176.137 32.8987 175.671 32.264C175.204 31.6293 174.835 30.8547 174.565 29.94C174.303 29.016 174.173 27.966 174.173 26.79C174.173 25.7073 174.322 24.704 174.621 23.78C174.919 22.8467 175.339 22.044 175.881 21.372C176.431 20.6907 177.089 20.1587 177.855 19.776C178.62 19.3933 179.465 19.202 180.389 19.202C181.135 19.202 181.765 19.314 182.279 19.538C182.801 19.7527 183.273 20.0373 183.693 20.392V13.042H188.033V34H185.345ZM180.949 30.892C181.266 30.892 181.551 30.864 181.803 30.808C182.064 30.7427 182.302 30.654 182.517 30.542C182.731 30.43 182.932 30.29 183.119 30.122C183.315 29.954 183.506 29.758 183.693 29.534V23.374C183.357 23.01 182.997 22.758 182.615 22.618C182.241 22.4687 181.845 22.394 181.425 22.394C181.023 22.394 180.655 22.4733 180.319 22.632C179.983 22.7907 179.689 23.0473 179.437 23.402C179.194 23.7473 179.003 24.2 178.863 24.76C178.723 25.32 178.653 25.9967 178.653 26.79C178.653 27.5553 178.709 28.1993 178.821 28.722C178.933 29.2447 179.087 29.6693 179.283 29.996C179.488 30.3133 179.731 30.542 180.011 30.682C180.291 30.822 180.603 30.892 180.949 30.892Z" fill="black"/>
<path d="M85.166 47.886H76.586L74.738 52H73.044L80.084 36.6H81.69L88.73 52H87.014L85.166 47.886ZM84.572 46.566L80.876 38.294L77.18 46.566H84.572ZM99.088 50.702V52H89.672V50.966L96.954 41.748H89.804V40.428H98.956V41.462L91.674 50.702H99.088ZM112.045 46.698H102.365C102.453 47.9007 102.915 48.876 103.751 49.624C104.587 50.3573 105.643 50.724 106.919 50.724C107.638 50.724 108.298 50.5993 108.899 50.35C109.5 50.086 110.021 49.7047 110.461 49.206L111.341 50.218C110.828 50.834 110.182 51.3033 109.405 51.626C108.642 51.9487 107.799 52.11 106.875 52.11C105.687 52.11 104.631 51.8607 103.707 51.362C102.798 50.8487 102.086 50.1447 101.573 49.25C101.06 48.3553 100.803 47.3433 100.803 46.214C100.803 45.0847 101.045 44.0727 101.529 43.178C102.028 42.2833 102.702 41.5867 103.553 41.088C104.418 40.5893 105.386 40.34 106.457 40.34C107.528 40.34 108.488 40.5893 109.339 41.088C110.19 41.5867 110.857 42.2833 111.341 43.178C111.825 44.058 112.067 45.07 112.067 46.214L112.045 46.698ZM106.457 41.682C105.342 41.682 104.404 42.0413 103.641 42.76C102.893 43.464 102.468 44.388 102.365 45.532H110.571C110.468 44.388 110.036 43.464 109.273 42.76C108.525 42.0413 107.586 41.682 106.457 41.682ZM116.742 42.694C117.109 41.9167 117.652 41.33 118.37 40.934C119.104 40.538 120.006 40.34 121.076 40.34V41.858L120.702 41.836C119.485 41.836 118.532 42.21 117.842 42.958C117.153 43.706 116.808 44.7547 116.808 46.104V52H115.246V40.428H116.742V42.694ZM129.867 40.34C130.952 40.34 131.935 40.5893 132.815 41.088C133.695 41.572 134.384 42.2613 134.883 43.156C135.381 44.0507 135.631 45.07 135.631 46.214C135.631 47.358 135.381 48.3773 134.883 49.272C134.384 50.1667 133.695 50.8633 132.815 51.362C131.935 51.8607 130.952 52.11 129.867 52.11C128.899 52.11 128.026 51.9047 127.249 51.494C126.486 51.0833 125.87 50.4893 125.401 49.712V52H123.905V35.676H125.467V42.628C125.951 41.88 126.567 41.3153 127.315 40.934C128.077 40.538 128.928 40.34 129.867 40.34ZM129.757 50.724C130.563 50.724 131.297 50.5407 131.957 50.174C132.617 49.7927 133.13 49.2573 133.497 48.568C133.878 47.8787 134.069 47.094 134.069 46.214C134.069 45.334 133.878 44.5493 133.497 43.86C133.13 43.1707 132.617 42.6427 131.957 42.276C131.297 41.8947 130.563 41.704 129.757 41.704C128.935 41.704 128.195 41.8947 127.535 42.276C126.889 42.6427 126.376 43.1707 125.995 43.86C125.628 44.5493 125.445 45.334 125.445 46.214C125.445 47.094 125.628 47.8787 125.995 48.568C126.376 49.2573 126.889 49.7927 127.535 50.174C128.195 50.5407 128.935 50.724 129.757 50.724ZM142.798 40.34C144.309 40.34 145.468 40.7213 146.274 41.484C147.081 42.232 147.484 43.3467 147.484 44.828V52H145.988V50.196C145.636 50.7973 145.116 51.2667 144.426 51.604C143.752 51.9413 142.945 52.11 142.006 52.11C140.716 52.11 139.689 51.802 138.926 51.186C138.164 50.57 137.782 49.756 137.782 48.744C137.782 47.7613 138.134 46.9693 138.838 46.368C139.557 45.7667 140.694 45.466 142.248 45.466H145.922V44.762C145.922 43.7647 145.644 43.0093 145.086 42.496C144.529 41.968 143.715 41.704 142.644 41.704C141.911 41.704 141.207 41.8287 140.532 42.078C139.858 42.3127 139.278 42.6427 138.794 43.068L138.09 41.902C138.677 41.4033 139.381 41.022 140.202 40.758C141.024 40.4793 141.889 40.34 142.798 40.34ZM142.248 50.878C143.128 50.878 143.884 50.68 144.514 50.284C145.145 49.8733 145.614 49.2867 145.922 48.524V46.632H142.292C140.312 46.632 139.322 47.3213 139.322 48.7C139.322 49.3747 139.579 49.91 140.092 50.306C140.606 50.6873 141.324 50.878 142.248 50.878ZM151.727 40.428H153.289V52H151.727V40.428ZM152.519 37.898C152.196 37.898 151.925 37.788 151.705 37.568C151.485 37.348 151.375 37.084 151.375 36.776C151.375 36.4827 151.485 36.226 151.705 36.006C151.925 35.786 152.196 35.676 152.519 35.676C152.841 35.676 153.113 35.786 153.333 36.006C153.553 36.2113 153.663 36.4607 153.663 36.754C153.663 37.0767 153.553 37.348 153.333 37.568C153.113 37.788 152.841 37.898 152.519 37.898ZM155.919 56.378C155.435 56.378 154.98 56.312 154.555 56.18C154.115 56.0627 153.756 55.8793 153.477 55.63L154.027 54.442C154.482 54.838 155.083 55.036 155.831 55.036C156.447 55.036 156.916 54.8527 157.239 54.486C157.576 54.1193 157.745 53.5767 157.745 52.858V40.428H159.307V52.858C159.307 53.9433 159.014 54.8013 158.427 55.432C157.84 56.0627 157.004 56.378 155.919 56.378ZM158.537 37.876C158.214 37.876 157.943 37.766 157.723 37.546C157.503 37.326 157.393 37.062 157.393 36.754C157.393 36.4607 157.503 36.204 157.723 35.984C157.943 35.764 158.214 35.654 158.537 35.654C158.86 35.654 159.131 35.764 159.351 35.984C159.571 36.1893 159.681 36.4387 159.681 36.732C159.681 37.0547 159.571 37.326 159.351 37.546C159.131 37.766 158.86 37.876 158.537 37.876ZM167.72 40.34C169.231 40.34 170.389 40.7213 171.196 41.484C172.003 42.232 172.406 43.3467 172.406 44.828V52H170.91V50.196C170.558 50.7973 170.037 51.2667 169.348 51.604C168.673 51.9413 167.867 52.11 166.928 52.11C165.637 52.11 164.611 51.802 163.848 51.186C163.085 50.57 162.704 49.756 162.704 48.744C162.704 47.7613 163.056 46.9693 163.76 46.368C164.479 45.7667 165.615 45.466 167.17 45.466H170.844V44.762C170.844 43.7647 170.565 43.0093 170.008 42.496C169.451 41.968 168.637 41.704 167.566 41.704C166.833 41.704 166.129 41.8287 165.454 42.078C164.779 42.3127 164.2 42.6427 163.716 43.068L163.012 41.902C163.599 41.4033 164.303 41.022 165.124 40.758C165.945 40.4793 166.811 40.34 167.72 40.34ZM167.17 50.878C168.05 50.878 168.805 50.68 169.436 50.284C170.067 49.8733 170.536 49.2867 170.844 48.524V46.632H167.214C165.234 46.632 164.244 47.3213 164.244 48.7C164.244 49.3747 164.501 49.91 165.014 50.306C165.527 50.6873 166.246 50.878 167.17 50.878ZM182.545 40.34C183.997 40.34 185.148 40.7653 185.999 41.616C186.864 42.452 187.297 43.6767 187.297 45.29V52H185.735V45.444C185.735 44.2413 185.434 43.3247 184.833 42.694C184.231 42.0633 183.373 41.748 182.259 41.748C181.012 41.748 180.022 42.122 179.289 42.87C178.57 43.6033 178.211 44.6227 178.211 45.928V52H176.649V40.428H178.145V42.562C178.57 41.858 179.157 41.3153 179.905 40.934C180.667 40.538 181.547 40.34 182.545 40.34Z" fill="black"/>
</svg>
